HIERARCHY
ROOT Hips
{
     OFFSET 1.88212 96.90440 -13.34250
     CHANNELS 6 Xposition Yposition Zposition Zrotation Xrotation Yrotation
     JOINT Spine
     {
          OFFSET 0.00000 11.89050 0.00000
          CHANNELS 3 Zrotation Xrotation Yrotation
          JOINT Spine1
          {
               OFFSET -0.00000 25.65740 0.12766
               CHANNELS 3 Zrotation Xrotation Yrotation
               JOINT HEad
               {
                    OFFSET 0.00000 8.73416 0.01134
                    CHANNELS 3 Zrotation Xrotation Yrotation
                    End Site
                    {
                         OFFSET -0.29000 12.77420 2.51395
                    }
               }
               JOINT LeftShoulder1
               {
                    OFFSET 8.99000 -0.36225 -0.22000
                    CHANNELS 3 Zrotation Xrotation Yrotation
                    JOINT LeftArm
                    {
                         OFFSET 10.28270 -0.00338 0.32212
                         CHANNELS 3 Zrotation Xrotation Yrotation
                         JOINT LeftForeArm
                         {
                              OFFSET 32.76690 0.09914 -1.42434
                              CHANNELS 3 Zrotation Xrotation Yrotation
                              JOINT LeftHand
                              {
                                   OFFSET 27.56430 0.08536 1.02216
                                   CHANNELS 3 Zrotation Xrotation Yrotation
                                   End Site
                                   {
                                        OFFSET 16.74430 -0.60000 1.50291
                                   }
                              }
                         }
                    }
               }
               JOINT RightShoulder
               {
                    OFFSET -8.99000 -0.36225 -0.22000
                    CHANNELS 3 Zrotation Xrotation Yrotation
                    JOINT RightArm
                    {
                         OFFSET -10.28270 -0.00338 0.32212
                         CHANNELS 3 Zrotation Xrotation Yrotation
                         JOINT RightForeArm
                         {
                              OFFSET -32.89710 0.09914 -1.42434
                              CHANNELS 3 Zrotation Xrotation Yrotation
                              JOINT RightHand
                              {
                                   OFFSET -27.49210 0.08536 1.02216
                                   CHANNELS 3 Zrotation Xrotation Yrotation
                                   End Site
                                   {
                                        OFFSET -16.63120 -0.60000 1.50291
                                   }
                              }
                         }
                    }
               }
          }
     }
     JOINT LeftUpLeg
     {
          OFFSET 8.94580 -8.66707 0.10165
          CHANNELS 3 Zrotation Xrotation Yrotation
          JOINT LeftLeg
          {
               OFFSET 0.00000 -44.42270 1.37270
               CHANNELS 3 Zrotation Xrotation Yrotation
               JOINT LeftFoot
               {
                    OFFSET -0.25355 -42.09240 -1.46059
                    CHANNELS 3 Zrotation Xrotation Yrotation
                    JOINT LeftToes
                    {
                         OFFSET -0.04000 -4.41509 8.49910
                         CHANNELS 3 Zrotation Xrotation Yrotation
                         End Site
                         {
                              OFFSET 0.08000 -0.04745 9.77979
                         }
                    }
               }
          }
     }
     JOINT RightUpLeg
     {
          OFFSET -8.94580 -8.66707 0.10165
          CHANNELS 3 Zrotation Xrotation Yrotation
          JOINT RightLeg
          {
               OFFSET 0.00000 -44.42270 1.37270
               CHANNELS 3 Zrotation Xrotation Yrotation
               JOINT RightFoot
               {
                    OFFSET 0.25355 -42.09240 -1.46059
                    CHANNELS 3 Zrotation Xrotation Yrotation
                    JOINT RightToes
                    {
                         OFFSET 0.04000 -4.41509 8.49910
                         CHANNELS 3 Zrotation Xrotation Yrotation
                         End Site
                         {
                              OFFSET -0.08000 -0.13745 9.77979
                         }
                    }
               }
          }
     }
}
MOTION
Frames: 17
Frame Time: 0.01667
6.36366 93.00276 -46.64199 16.39076 0.75932 88.76847 -15.26204 33.28748 8.31738 -0.01915 -0.01107 0.00044 -17.32889 15.21662 14.24904 0.06930 0.31758 -5.95706 -143.16055 -71.76044 -117.45823 -25.76442 64.68768 -91.60202 13.14447 4.93811 -10.09127 14.83694 1.85631 -2.91213 79.80997 6.42838 69.97229 6.69836 25.62103 90.44918 17.14523 12.11345 12.31782 16.33108 3.59580 -14.76714 -23.73550 16.40263 49.82134 -20.94693 -0.08037 -0.02799 21.66279 -11.52872 -43.59831 -29.08334 11.29445 25.80443 31.03933 -5.78686 -49.45122 -24.31916 0.00290 -0.00245 9.00126 -13.21840 11.75339 
6.13049 93.24105 -47.35353 15.85585 0.94137 89.26653 -13.27197 33.43248 5.00412 -0.01881 -0.00431 0.00349 -17.98857 19.93425 14.07548 -1.27211 0.41439 -4.30303 -146.95717 -71.64371 -122.26376 -20.10590 66.22249 -97.11664 16.39938 5.53655 -8.56362 13.74052 2.06219 -1.62118 79.70304 6.51496 70.10107 5.78768 25.61313 90.91744 16.89043 12.29591 13.81118 14.38585 2.65460 -15.27540 -21.23904 17.07509 44.25914 -21.86907 -0.04945 -0.02523 22.75001 -11.48711 -38.05060 -28.55330 11.66838 26.08989 29.02956 -7.08475 -50.91221 -23.93342 0.00348 -0.00282 8.87129 -12.65584 12.09646 
6.00104 93.43510 -48.18454 15.31869 0.98951 89.62523 -11.45130 32.90524 1.98027 -0.01814 0.00241 0.00606 -18.62128 24.42669 14.11711 -2.46741 0.98070 -2.74722 -149.73254 -71.43640 -125.80116 -17.69106 66.76924 -99.46109 16.61011 0.60596 -7.72704 12.86049 2.75384 -0.40179 79.68082 6.41542 70.27479 4.98021 25.69207 91.36337 16.81808 12.18928 12.23184 12.71736 1.86398 -15.71802 -19.23735 17.68350 40.10095 -22.55202 -0.02686 -0.01933 23.67296 -11.89054 -33.84948 -28.11737 11.90603 26.25767 27.28174 -8.09018 -52.20594 -23.48533 0.00411 -0.00317 8.73324 -12.15537 12.52004 
5.98994 93.57368 -49.11559 14.78226 0.93343 89.84900 -9.91265 31.84880 -0.64439 -0.01699 0.00858 0.00790 -19.23298 28.63139 14.33549 -3.48863 1.92196 -1.31577 -151.50639 -71.17290 -128.09407 -17.12834 66.84371 -99.89435 17.62815 2.37146 -7.12056 12.17984 3.83403 0.71165 79.72733 6.14888 70.46577 4.26139 25.82001 91.82062 16.65664 12.30732 12.98405 11.38488 1.21749 -16.08159 -18.13387 17.63066 39.38456 -22.30465 0.00890 -0.02050 23.96923 -12.50478 -32.93908 -27.79738 12.03199 26.31530 25.82893 -8.81351 -53.28851 -22.96945 0.00460 -0.00324 8.60534 -11.74228 13.00375 
6.09764 93.65375 -50.12489 14.25284 0.80743 89.94827 -8.70823 30.39850 -2.82193 -0.01551 0.01442 0.00927 -19.81790 32.50400 14.69432 -4.32649 3.16016 -0.01907 -152.34782 -70.87650 -129.24887 -17.39929 66.65063 -99.39085 17.32826 0.52193 -6.95120 11.68898 5.21628 1.71108 79.82235 5.71991 70.66441 3.63246 25.97015 92.23502 16.51180 12.16786 11.99200 10.40510 0.70535 -16.36063 -17.75449 17.26592 41.43288 -21.48459 -0.00412 -0.02181 23.59997 -13.37585 -34.81014 -27.79370 12.22334 25.20726 24.99215 -9.06561 -53.01973 -22.43733 0.00460 -0.00256 8.48799 -11.42417 13.54401 
6.30171 93.68664 -51.18156 13.73971 0.63592 89.93343 -7.82163 29.07506 -4.51208 -0.01357 0.01521 0.00934 -20.21842 35.65471 14.94256 -4.96458 4.24032 1.08061 -152.35936 -70.55716 -129.41585 -17.93335 66.28329 -98.53143 17.55010 2.25458 -6.78335 11.39102 6.43074 2.57639 79.94427 5.18515 70.85861 3.09118 26.12862 92.65632 16.44263 12.20486 12.42724 9.76181 0.31667 -16.55103 -17.93986 16.66002 45.69158 -20.26653 -0.03437 -0.02677 22.52248 -14.51516 -38.95051 -27.85020 12.29029 24.10968 24.44669 -9.14795 -52.62284 -21.89721 0.00447 -0.00183 8.38529 -11.19100 14.13183 
6.57266 93.69126 -52.24818 13.25512 0.43321 89.81371 -7.18985 27.90157 -5.77952 -0.01172 0.01546 0.00916 -20.42305 38.12579 15.08698 -5.41996 5.17919 2.01223 -151.71935 -70.22149 -128.81607 -18.44885 65.80264 -97.64821 17.17432 1.73153 -6.81392 11.26268 7.49076 3.31438 80.08028 4.56656 71.04663 2.62546 26.28406 93.07901 16.33908 12.07454 11.84964 9.37493 0.00992 -16.65033 -18.17684 16.32143 49.49704 -19.36282 -0.03152 -0.00470 21.33670 -15.85608 -42.76897 -27.96247 12.23899 23.03361 24.16782 -9.06326 -52.09451 -21.35464 0.00428 -0.00119 8.29735 -11.01911 14.73971 
6.88446 93.68477 -53.29050 12.81060 0.20543 89.59803 -6.75800 26.89329 -6.67752 -0.00998 0.01528 0.00871 -20.03209 38.63349 15.09629 -5.70433 5.99108 2.80087 -150.62048 -69.86948 -127.67638 -18.85056 65.25242 -96.88425 17.13343 3.14976 -6.78614 11.27825 8.40797 3.91910 80.22636 3.90541 71.22997 2.20595 26.43304 93.54648 16.35038 12.10860 12.10409 9.17423 -0.25572 -16.65785 -18.54139 16.13165 52.90027 -18.62831 -0.02364 -0.00069 20.11582 -17.24086 -46.21757 -28.11652 12.07667 21.98958 24.12311 -8.81872 -51.43197 -20.81541 0.00405 -0.00066 8.20819 -10.88856 15.32613 
7.21597 93.67823 -54.28459 12.41393 -0.04483 89.29804 -6.47961 26.05401 -7.25338 -0.00843 0.01482 0.00810 -19.23198 37.40945 15.15448 -5.83019 6.68826 3.46639 -149.26633 -69.50168 -126.23021 -19.15002 64.67143 -96.28199 16.81025 3.19591 -6.82835 11.41322 9.19187 4.40073 80.38449 3.23237 71.41870 1.79732 26.57088 94.06184 16.30797 12.04517 11.74427 9.10927 -0.50761 -16.57768 -19.03903 16.02198 55.92283 -17.98868 -0.01849 0.00073 18.91662 -18.59130 -49.30919 -28.29560 11.81375 20.98496 24.27684 -8.42458 -50.63241 -20.28124 0.00376 -0.00025 8.08719 -10.78377 15.85928 
7.55673 93.69228 -55.22422 12.07342 -0.31875 88.93576 -6.30925 25.38309 -7.55907 -0.00699 0.01408 0.00730 -18.19694 34.65850 15.43600 -5.81640 7.28255 4.02318 -147.85704 -69.11872 -124.70484 -19.39722 64.09941 -95.82754 16.69784 4.30658 -6.81018 11.64330 9.85299 4.76560 80.55847 2.57890 71.61866 1.36556 26.69881 94.65171 16.37107 12.09042 11.85315 9.14639 -0.75013 -16.42753 -19.64295 15.95554 58.57888 -17.41095 -0.01481 0.00165 17.78035 -19.86530 -52.04065 -28.48008 11.38106 20.01922 26.99423 -6.32591 -49.09016 -20.81983 0.11446 0.04493 8.34995 -13.37438 15.27655 
7.90054 93.73479 -56.09821 11.79193 -0.61752 88.53620 -6.21090 24.86745 -7.64308 -0.00558 0.01335 0.00649 -17.15440 32.03268 15.70062 -5.68658 7.78979 4.48335 -146.55199 -68.71951 -123.28187 -19.62594 63.57431 -95.50751 16.45834 4.60321 -6.80639 11.94355 10.40717 5.03178 80.75626 1.95764 71.83639 0.89190 26.81510 95.31242 16.37373 12.04659 11.58605 9.26852 -0.97442 -16.22932 -20.31897 15.90958 60.87778 -16.88431 -0.01175 0.00229 16.73290 -21.03733 -54.42251 -28.72889 10.74390 19.10213 28.98769 -4.57898 -47.72532 -21.32303 0.01725 -0.00154 8.63134 -14.68691 15.00516 
8.23796 93.81452 -56.90281 11.56882 -0.94267 88.12629 -6.15341 24.49070 -7.55130 -0.00427 0.01266 0.00574 -16.13448 29.55884 15.95048 -5.46684 8.22400 4.85979 -145.43665 -68.29747 -122.06462 -19.83647 63.12345 -95.31499 16.37305 5.48670 -6.75295 12.28876 10.86937 5.20896 80.98692 1.38178 72.07507 0.37073 26.92210 96.05047 16.45440 12.04721 11.57395 9.46936 -1.16582 -16.00634 -21.03069 15.86757 62.82673 -16.40712 -0.00904 0.00271 15.79061 -22.08674 -56.46736 -29.02943 9.90454 18.22951 32.48779 -1.52652 -45.94254 -22.52940 0.11598 0.02773 9.04702 -17.73601 13.86696 
8.56052 93.93476 -57.63366 11.40131 -1.29519 87.73329 -6.11057 24.23691 -7.32557 -0.00311 0.01202 0.00513 -15.15885 27.26108 16.18203 -5.18282 8.59378 5.16930 -144.51791 -67.84080 -121.07430 -20.00893 62.75835 -95.24974 16.24628 5.87361 -6.68647 12.66140 11.24985 5.30495 81.25294 0.85819 72.33797 -0.18968 27.02028 96.85221 16.47554 11.96754 11.32470 9.74717 -1.30949 -15.78060 -21.74108 15.81563 64.43127 -15.97888 -0.00663 0.00291 14.96550 -22.99135 -58.18581 -29.40859 8.83596 17.40198 36.51363 2.27819 -44.09218 -24.02034 0.12257 0.01602 9.34677 -21.05964 12.11067 
8.86107 94.08829 -58.28542 11.28371 -1.67197 87.38126 -6.06597 24.08886 -7.00071 -0.00227 0.01141 0.00462 -14.24173 25.15947 16.38788 -4.86043 8.90318 5.42656 -143.75031 -67.33704 -120.27926 -20.11653 62.47596 -95.30783 16.23294 6.55445 -6.57202 13.05161 11.55523 5.32179 81.54977 0.39206 72.62590 -0.77637 27.11247 97.70810 16.54567 11.90998 11.21019 10.09780 -1.39640 -15.56826 -22.41492 15.74266 65.69581 -15.59644 -0.00455 0.00293 14.26421 -23.72999 -59.58442 -29.85755 7.54921 16.61541 40.71444 6.54228 -42.35583 -25.89754 0.13471 0.00678 9.67481 -24.49438 9.98657 
9.13327 94.25918 -58.85314 11.20864 -2.06511 87.08958 -6.01283 24.02801 -6.60466 -0.00173 0.01083 0.00420 -13.39235 23.26887 16.55856 -4.51747 9.15524 5.63994 -143.07487 -66.77680 -119.62665 -20.13802 62.26115 -95.48056 16.20145 6.90874 -6.42873 13.45424 11.79133 5.26948 81.86809 -0.02377 72.94070 -1.37751 27.19729 98.59796 16.55743 11.81130 10.95654 10.51134 -1.42524 -15.37825 -23.02147 15.64106 66.62573 -15.25295 -0.00285 0.00280 13.68653 -24.29247 -60.67421 -30.35379 6.07439 15.86666 44.84283 11.03208 -40.86985 -27.88147 0.14166 0.01018 9.81284 -27.66329 7.47412 
9.36215 94.43695 -59.34316 11.16412 -2.46327 86.86766 -5.95076 24.03193 -6.15619 -0.00133 0.01027 0.00375 -12.61821 21.59735 16.68460 -4.16022 9.35340 5.80777 -142.45815 -66.15606 -119.07627 -20.06248 62.09537 -95.75303 16.23112 7.39642 -6.24195 13.86265 11.96356 5.16426 82.20039 -0.40330 73.28431 -1.98859 27.27176 99.50933 16.58844 11.74559 10.78371 10.96880 -1.40806 -15.20853 -23.53566 15.50538 67.23324 -14.93461 -0.00155 0.00256 13.22652 -24.68294 -61.47782 -30.84190 4.55570 15.15783 47.40458 14.00053 -39.89384 -27.45728 -0.00621 -0.01078 8.08211 -28.72721 6.17985 
9.52929 94.61929 -59.76823 11.13734 -2.85469 86.71836 -5.87880 24.08000 -5.66992 -0.00096 0.00978 0.00330 -11.92659 20.14529 16.75789 -3.78802 9.50098 5.92325 -141.89841 -65.47453 -118.60817 -19.89048 61.96612 -96.10761 16.23762 7.67122 -6.02729 14.26346 12.07576 5.02879 82.54642 -0.76645 73.66238 -2.60748 27.32902 100.42533 16.57021 11.66839 10.52736 11.44365 -1.36590 -15.05320 -23.93907 15.32833 67.54084 -14.62019 -0.00056 0.00223 12.87682 -24.90961 -62.02743 -31.28080 3.12088 14.49936 48.99619 16.07305 -39.15810 -28.06737 0.01285 -0.00762 7.88261 -28.94263 5.67624 
